<mxfile host="app.diagrams.net" modified="2023-11-22T13:00:24.997Z" agent="Mozilla/5.0 (X11; Ubuntu; Linux x86_64; rv:109.0) Gecko/20100101 Firefox/119.0" etag="CieUovHIXZ1shl04LEXa" version="22.1.3" type="device">
  <diagram id="9zD3pyVbjnvsyNqv9VM9" name="Page-1">
    <mxGraphModel dx="1168" dy="795" grid="1" gridSize="10" guides="1" tooltips="1" connect="1" arrows="1" fold="1" page="1" pageScale="1" pageWidth="827" pageHeight="1169" math="0" shadow="0">
      <root>
        <mxCell id="0" />
        <mxCell id="1" parent="0" />
        <mxCell id="OkEK41ulaLDQkY5wJbmK-1" value="Admin staff" style="shape=umlLifeline;participant=umlActor;perimeter=lifelinePerimeter;whiteSpace=wrap;html=1;container=1;collapsible=0;recursiveResize=0;verticalAlign=top;spacingTop=36;outlineConnect=0;" parent="1" vertex="1">
          <mxGeometry x="90" y="250" width="20" height="560" as="geometry" />
        </mxCell>
        <mxCell id="-7bT16llbd53D_egCwri-1" value="&lt;div&gt;confirm to user&lt;/div&gt;&lt;div&gt;&lt;br&gt;&lt;/div&gt;" style="html=1;verticalAlign=bottom;startArrow=oval;startFill=1;endArrow=block;startSize=8;curved=0;rounded=0;" edge="1" parent="OkEK41ulaLDQkY5wJbmK-1" source="LjGdx0ZabsaXKPZAj_ey-1">
          <mxGeometry width="60" relative="1" as="geometry">
            <mxPoint x="100" y="549" as="sourcePoint" />
            <mxPoint x="20" y="549" as="targetPoint" />
          </mxGeometry>
        </mxCell>
        <mxCell id="OkEK41ulaLDQkY5wJbmK-2" value="GUI" style="shape=umlLifeline;participant=umlBoundary;perimeter=lifelinePerimeter;whiteSpace=wrap;html=1;container=1;collapsible=0;recursiveResize=0;verticalAlign=top;spacingTop=36;outlineConnect=0;" parent="1" vertex="1">
          <mxGeometry x="200" y="250" width="50" height="550" as="geometry" />
        </mxCell>
        <mxCell id="LjGdx0ZabsaXKPZAj_ey-1" value="" style="html=1;points=[];perimeter=orthogonalPerimeter;" parent="OkEK41ulaLDQkY5wJbmK-2" vertex="1">
          <mxGeometry x="20" y="110" width="10" height="440" as="geometry" />
        </mxCell>
        <mxCell id="LjGdx0ZabsaXKPZAj_ey-3" value="" style="html=1;points=[];perimeter=orthogonalPerimeter;" parent="OkEK41ulaLDQkY5wJbmK-2" vertex="1">
          <mxGeometry x="30" y="180" width="10" height="40" as="geometry" />
        </mxCell>
        <mxCell id="LjGdx0ZabsaXKPZAj_ey-4" value="checkDetails(name, course)" style="edgeStyle=orthogonalEdgeStyle;html=1;align=left;spacingLeft=2;endArrow=block;rounded=0;entryX=1;entryY=0;" parent="OkEK41ulaLDQkY5wJbmK-2" source="LjGdx0ZabsaXKPZAj_ey-1" target="LjGdx0ZabsaXKPZAj_ey-3" edge="1">
          <mxGeometry relative="1" as="geometry">
            <mxPoint x="65" y="160" as="sourcePoint" />
            <Array as="points">
              <mxPoint x="95" y="160" />
              <mxPoint x="95" y="180" />
            </Array>
          </mxGeometry>
        </mxCell>
        <mxCell id="OkEK41ulaLDQkY5wJbmK-3" value="University" style="shape=umlLifeline;participant=umlEntity;perimeter=lifelinePerimeter;whiteSpace=wrap;html=1;container=1;collapsible=0;recursiveResize=0;verticalAlign=top;spacingTop=36;outlineConnect=0;" parent="1" vertex="1">
          <mxGeometry x="460" y="250" width="40" height="550" as="geometry" />
        </mxCell>
        <mxCell id="LjGdx0ZabsaXKPZAj_ey-13" value="" style="html=1;points=[];perimeter=orthogonalPerimeter;" parent="OkEK41ulaLDQkY5wJbmK-3" vertex="1">
          <mxGeometry x="15" y="490" width="10" height="80" as="geometry" />
        </mxCell>
        <mxCell id="LjGdx0ZabsaXKPZAj_ey-18" value="" style="html=1;points=[];perimeter=orthogonalPerimeter;" parent="OkEK41ulaLDQkY5wJbmK-3" vertex="1">
          <mxGeometry x="15" y="255" width="10" height="80" as="geometry" />
        </mxCell>
        <mxCell id="OkEK41ulaLDQkY5wJbmK-4" value="Student" style="shape=umlLifeline;participant=umlEntity;perimeter=lifelinePerimeter;whiteSpace=wrap;html=1;container=1;collapsible=0;recursiveResize=0;verticalAlign=top;spacingTop=36;outlineConnect=0;" parent="1" vertex="1">
          <mxGeometry x="630" y="250" width="40" height="550" as="geometry" />
        </mxCell>
        <mxCell id="LjGdx0ZabsaXKPZAj_ey-21" value="" style="html=1;points=[];perimeter=orthogonalPerimeter;" parent="OkEK41ulaLDQkY5wJbmK-4" vertex="1">
          <mxGeometry x="15" y="360" width="10" height="80" as="geometry" />
        </mxCell>
        <mxCell id="LjGdx0ZabsaXKPZAj_ey-2" value="Input student details" style="html=1;verticalAlign=bottom;startArrow=oval;endArrow=block;startSize=8;rounded=0;" parent="1" source="OkEK41ulaLDQkY5wJbmK-1" target="LjGdx0ZabsaXKPZAj_ey-1" edge="1">
          <mxGeometry relative="1" as="geometry">
            <mxPoint x="160" y="360" as="sourcePoint" />
            <Array as="points">
              <mxPoint x="160" y="380" />
            </Array>
          </mxGeometry>
        </mxCell>
        <mxCell id="LjGdx0ZabsaXKPZAj_ey-14" value="addStudent(student)" style="html=1;verticalAlign=bottom;startArrow=oval;endArrow=block;startSize=8;rounded=0;" parent="1" source="LjGdx0ZabsaXKPZAj_ey-1" target="LjGdx0ZabsaXKPZAj_ey-13" edge="1">
          <mxGeometry relative="1" as="geometry">
            <mxPoint x="415" y="700" as="sourcePoint" />
            <Array as="points">
              <mxPoint x="310" y="740" />
            </Array>
          </mxGeometry>
        </mxCell>
        <mxCell id="LjGdx0ZabsaXKPZAj_ey-19" value="allocateStudentId()" style="html=1;verticalAlign=bottom;endArrow=block;entryX=0;entryY=0;rounded=0;" parent="1" source="LjGdx0ZabsaXKPZAj_ey-1" target="LjGdx0ZabsaXKPZAj_ey-18" edge="1">
          <mxGeometry relative="1" as="geometry">
            <mxPoint x="260" y="510" as="sourcePoint" />
          </mxGeometry>
        </mxCell>
        <mxCell id="LjGdx0ZabsaXKPZAj_ey-20" value="id" style="html=1;verticalAlign=bottom;endArrow=open;dashed=1;endSize=8;exitX=0;exitY=0.95;rounded=0;" parent="1" source="LjGdx0ZabsaXKPZAj_ey-18" target="OkEK41ulaLDQkY5wJbmK-2" edge="1">
          <mxGeometry relative="1" as="geometry">
            <mxPoint x="260" y="586" as="targetPoint" />
          </mxGeometry>
        </mxCell>
        <mxCell id="LjGdx0ZabsaXKPZAj_ey-22" value="create(id, name, course)" style="html=1;verticalAlign=bottom;endArrow=block;entryX=0;entryY=0;rounded=0;" parent="1" source="OkEK41ulaLDQkY5wJbmK-2" target="LjGdx0ZabsaXKPZAj_ey-21" edge="1">
          <mxGeometry relative="1" as="geometry">
            <mxPoint x="250" y="510" as="sourcePoint" />
          </mxGeometry>
        </mxCell>
        <mxCell id="LjGdx0ZabsaXKPZAj_ey-23" value="student" style="html=1;verticalAlign=bottom;endArrow=open;dashed=1;endSize=8;exitX=0;exitY=0.95;rounded=0;" parent="1" source="LjGdx0ZabsaXKPZAj_ey-21" target="LjGdx0ZabsaXKPZAj_ey-1" edge="1">
          <mxGeometry x="0.0361" y="-6" relative="1" as="geometry">
            <mxPoint x="250" y="586" as="targetPoint" />
            <mxPoint as="offset" />
          </mxGeometry>
        </mxCell>
      </root>
    </mxGraphModel>
  </diagram>
</mxfile>
